<?xml version="1.0" standalone="no"?>
<!DOCTYPE svg PUBLIC "-//W3C//DTD SVG 20010904//EN"
 "http://www.w3.org/TR/2001/REC-SVG-20010904/DTD/svg10.dtd">
<svg version="1.0" xmlns="http://www.w3.org/2000/svg"
 width="421.000000pt" height="461.000000pt" viewBox="0 0 421.000000 461.000000"
 preserveAspectRatio="xMidYMid meet">

<g transform="translate(0.000000,461.000000) scale(0.100000,-0.100000)"
fill="#198754" stroke="none">
<path d="M890 4323 c-52 -9 -157 -46 -207 -75 -115 -64 -204 -162 -261 -285
-65 -141 -63 -75 -60 -1713 l3 -1485 27 -81 c48 -139 133 -253 247 -328 79
-53 120 -70 222 -96 69 -18 111 -20 391 -20 l313 0 44 29 c58 39 81 76 81 131
0 55 -26 108 -68 136 -31 21 -45 22 -354 26 -305 4 -326 6 -380 27 -75 29
-149 97 -179 163 l-24 53 0 1480 0 1480 26 55 c36 77 80 124 147 157 l57 28
1060 0 1060 0 55 -26 c77 -36 124 -80 157 -147 l28 -57 5 -555 c5 -533 6 -556
25 -590 29 -50 101 -84 160 -76 53 8 102 46 121 93 21 49 20 1079 -1 1178 -42
195 -177 366 -354 447 -128 59 -100 58 -1256 56 -583 0 -1071 -3 -1085 -5z"/>
<path d="M1069 3346 c-49 -34 -73 -86 -67 -148 6 -56 30 -94 79 -123 33 -20
52 -20 899 -20 847 0 866 0 899 20 49 29 73 67 79 123 6 62 -18 114 -67 148
l-36 24 -875 0 -875 0 -36 -24z"/>
<path d="M1127 2730 c-144 -28 -174 -232 -43 -294 31 -14 122 -16 904 -16
l869 0 33 23 c97 66 90 218 -13 275 -30 16 -95 17 -872 19 -462 0 -857 -2
-878 -7z"/>
<path d="M3426 2149 c-110 -26 -139 -51 -635 -543 -328 -327 -479 -483 -491
-511 -23 -51 -198 -623 -206 -675 -13 -77 71 -180 147 -180 47 0 697 187 742
214 23 13 247 231 498 483 436 438 458 461 495 536 33 70 38 89 42 169 8 156
-30 265 -125 369 -110 118 -305 176 -467 138z m195 -332 c91 -61 107 -181 32
-249 -18 -17 -23 -13 -128 92 l-109 109 20 22 c45 51 130 63 185 26z m-521
-801 l-295 -293 -149 -42 c-82 -22 -152 -39 -155 -36 -8 9 49 217 75 270 18
36 103 128 307 335 l282 285 115 -112 115 -113 -295 -294z"/>
<path d="M1107 2086 c-77 -28 -114 -89 -104 -171 5 -53 36 -97 81 -119 30 -14
96 -16 573 -16 492 0 541 2 573 18 52 26 80 74 80 139 0 65 -21 105 -70 136
-35 22 -40 22 -565 24 -432 2 -537 0 -568 -11z"/>
</g>
</svg>
